/* XPM */
static const char *bitcoin64_xpm[] = {
/* columns rows colors chars-per-pixel */
"64 64 186 2",
"   c Black",
"9  c #000001",
"1  c #0F0F0F",
"3  c #1E1E1E",
"^  c #E8E8E8",
"p. c #E8E8E9",
"!  c #F7F7F7",
"W  c #4B4B4B",
"a  c #5A5A5A",
"t  c #919292",
"|. c #A0A1A1",
"b  c #CDCECE",
"D. c #121313",
"X  c #080808",
"R  c #EBECEC",
"2  c #171717",
"T. c #E1E1E2",
"[  c #F0F0F0",
"U. c #F0F0F1",
"k  c #FFFFFF",
"e. c #5D5E5E",
"v. c #717171",
"V. c #8F8F8F",
"}. c #A8A9A9",
"). c #9E9E9E",
"v  c #D5D6D6",
"&  c #010101",
"z  c #1A1B1B",
"q  c #010102",
",  c #101010",
"c. c #F3F4F4",
"g. c #1F1F1F",
"S. c #747575",
"l. c #929393",
"]. c #888888",
"/. c #A1A2A2",
"`  c #B5B5B6",
"5  c #090909",
"c  c #ECEDED",
"R. c #E2E2E2",
"O. c #F1F1F1",
"F. c #7C7D7D",
"f  c #8B8C8C",
"N  c #818181",
"~. c #909090",
"%  c #020202",
"p  c #020203",
"#  c #111111",
"F  c #DBDBDB",
"#. c #F4F5F5",
"o. c #202020",
"j. c #EAEAEA",
".. c #F9F9FA",
"[. c #6B6B6B",
"9. c #C5C5C6",
"+  c #0A0A0A",
"W. c #232424",
"(  c #EDEEEE",
"m  c #191919",
"H. c #19191A",
"@. c #323333",
"D  c #282828",
"S  c #F2F2F2",
">  c #555555",
"A  c #737373",
"y  c #8C8D8D",
"T  c #C8C9C9",
"-. c #C8C9CA",
"{  c #BEBEBF",
"*  c #030303",
"I  c #E6E7E7",
"g  c #CDCDCE",
":  c #121212",
",. c #444646",
".  c #3F3F3F",
"f. c #3F3F40",
"X. c #4E4E4E",
"G  c #676868",
"}  c #949595",
"`. c #949596",
"=. c #060707",
"w  c #0B0B0B",
"x  c #EEEFEF",
">. c #FDFEFE",
"]  c #292929",
"/  c #E4E4E5",
"y. c #F3F3F3",
"Z. c #383838",
"K  c #606161",
"2. c #6F7070",
"E  c #747474",
"u  c #8D8E8E",
":. c #ABACAC",
"3. c #C9CACA",
"u. c #0E0F0F",
"o  c #040404",
"E. c #CECECE",
"%. c #040405",
"<  c #131313",
"q. c #2C2D2D",
"0. c #F6F7F7",
"z. c #595A5A",
"C  c #68696A",
"V  c #777878",
"s. c #777879",
"G. c #8B8B8C",
"_. c #A4A5A6",
"+. c #C2C3C3",
";  c #0C0C0C",
"<. c #252626",
"w. c #E5E5E6",
"Q  c #FEFFFF",
"-  c #2A2A2A",
"I. c #434444",
"{. c #393939",
"B. c #616262",
"(. c #9D9E9E",
"A. c #ACADAC",
"6. c #898889",
"Q. c #000101",
"0  c #000102",
"i. c #D9DAD9",
"L. c #D9DADA",
"O  c #050505",
"'. c #050506",
"8  c #141414",
"n. c #2D2E2F",
"d. c #FCFCFD",
"P  c #696A6A",
"i  c #6E6E6E",
"e  c #7D7D7D",
"J  c #8C8C8C",
"J. c #B4B5B5",
"d  c #9B9B9C",
"*. c #D2D3D3",
"8. c #171818",
"_  c #0D0D0D",
"!. c #0D0D0E",
")  c #D7D7D7",
"n  c #262727",
".X c #1C1C1C",
"M. c #D7D7D8",
"1. c #F0F1F1",
"h. c #1C1C1D",
"7. c #E6E6E6",
"m. c #F5F5F5",
"~  c #626363",
"r. c #8F9090",
"^. c #ADAEAE",
"s  c #949495",
"Z  c #010202",
"k. c #C1C1C1",
"@  c #060606",
"K. c #D0D0D0",
"4  c #151515",
"C. c #DFDFE0",
"h  c #EEEEEF",
"=  c #333333",
"j  c #FDFDFD",
"|  c #5B5C5C",
"Y. c #515152",
"r  c #979898",
"'  c #B5B6B6",
" X c #ABABAC",
"$. c #C4C5C5",
"Y  c #C9C9C9",
"U  c #181919",
"M  c #0E0E0E",
" . c #363737",
"x. c #2C2C2C",
"l  c #3B3B3C",
"H  c #777777",
"&. c #9FA0A0",
"5. c #AEAFAF",
"B  c #A4A4A4",
";. c #020303",
"$  c #070707",
"7  c #161616",
"P. c #252525",
"N. c #F9FAFA",
"L  c #FEFEFE",
"4. c #434344",
"t. c #6B6C6C",
"6  c #7F7F7F",
"a. c #A7A8A8",
"b. c #C5C6C6",
/* pixels */
"                                                    . X o O + X @ X + O o X .                                                   ",
"                                            # $ % & & &                   & & & % $ #                                           ",
"                                        X & & &                                   & & & X                                       ",
"                                  . @ & &         & & % & & o o % o o & & % % &         & & @ .                                 ",
"                                @ & &       & % * @ $ =                     + X o & &       & & @                               ",
"                            X * &     & % * X -                                     ; o % &     & * X                           ",
"                          @ %       % @ X                                               : O % &     % @                         ",
"                      > * &     & O ,                                                       < @ *     & * >                     ",
"                    < o &     % $                                                               < o &   & o <                   ",
"                  1 o     & o 2                                                                   > @ %     o 3                 ",
"                4 &     & O                                                                           5 *     o 4               ",
"              6 *     & 5                                                                               ; *     o 6             ",
"              O     & @             *                                                       *             ; %     O             ",
"            @ &     O                                                                                       + &   & @           ",
"          X %     o             &                                                                             @ &   % 5         ",
"          o     * 7           &                                                                   &             o     o         ",
"        $ &   & +           &                                                                       &           8 %   & $       ",
"      = %     *                                                                                                   X &   % >     ",
"      @ &   & ,                                                                                         *           &   & @     ",
"      &     O                       9                                                         9                     $ &   &     ",
"    o &   & X         &           0                                                             q         &           &   & o   ",
"    *     *                       9 w e r t y y y u i p                       a u y y y s d f 4 9                     O &   *   ",
"  < &   & o         &               7 g h j k k k k k l                     z x k k k k c v b n             &         1 %   & < ",
"  * &   % m                           M 2 N k k k k k B                     V k k k k k C & Z                           *   & o ",
"  %     *         %                       A k k k k k S D                 1 F k k k k k G                     %         @ &   % ",
"  &   & @         &                       H k k k k k k J                 K k k L k k k P                     &         X &   * ",
". &   & @                                 H k k k k k k I U             @ Y k T R k k k P                               . %   & ",
"5     & 2                                 H k k k k k k k E             W Q ! ~ ^ k k k P                                 *   & ",
"5 &   &         %                         H k k / ( k k k ) _         & ` k ' ] [ k k k P                                 o   & ",
"O     &         &                         H k k { } k k k k |          ...k X.o.O.k k k P                       &         O &   ",
"5     *         &                         H k k +.@.#.k k k $.%.      &.k *.=.D O.k k k P                       &         $ &   ",
"X     o                                   H k k -.;.:.k k k >.,.    <.1.k 2.  - O.k k k P                                 X &   ",
"$     o                                   H k k 3.  4.>.k k k 5.    6.k 7.8.  - O.k k k P                                 o &   ",
"X     o                                   H k k 3.O o 9.k k k 0.q.# w.k f     - O.k k k P                                 5 &   ",
"5     *                                   H k k 3.@   e.k k k k r.t.k y.]     - O.k k k P                       &         $ &   ",
"O     *         &                         H k k 3.@   u.i.k k k [ p.k a.      - O.k k k P                       %         @ &   ",
"o &   &         %                         H k k 3.@     s.k k k k k d.f.      - O.k k k P                       %         o   & ",
"5 &   & g.                                H k k 3.@     h.j.k k k k k.*       - O.k k k P                                 *   & ",
". &   & $                                 H k k 3.@       l.k k k k z.        x.c.k k k P                               6 &   & ",
"  &   & $         &                       v.k k b.        n.m.k k M._         q.N.k k k B.                    &         + &   & ",
"  %     *         %                       V.k k C.Z.M &     A.k k S.      + D.F.k k k k G.w Z                           $ &   % ",
"  o &   % -                         H.J.K.k k k k k L.P.    I.k U.z     Y.T.j.k k k k k k R.E.W.                        *   & o ",
"  4 &   & 5                       Q.!.~.^./.(.(.)._.`.D.    '.].[.      {.}.}.|.(.(.(.(.|. X(.m 9           &         4 %   & 4 ",
"    *     O                       Z                                                             q                     @ &   *   ",
"    o &   % ;         &             Q.                                                        Q.          %           &   & o   ",
"      &     o           &                                                                                           5 &   &     ",
"      @ &   % ;                                                                                         o           &   & @     ",
"      = %     O                                                                                       %           + &   % >     ",
"        $ &   & +                                                                                   &           4 %   & $       ",
"          *     % g.          &                                                                   &             O     *         ",
"          5 %     O                                                                             &             5 &   % 5         ",
"            @ &   & $                                                                         %             + %   & @           ",
"              O     & 5                                                                                   _ %     O             ",
"              k *     % 5                                                                               _ %     o k             ",
"                4 &     & $                                                                           M *     & 2               ",
"                  1 &     % $ =                                                                     X *     & #                 ",
"                    2 *     & o ;                                                               1 O &   & o 4                   ",
"                      6 * &     % @ 2                                                         5 %     & O 6                     ",
"                          @ %     & % X .X                                                X & &     % @                         ",
"                            # * &     & % o X                                       M @ & &     & * X                           ",
"                                $ & &       & * O @ .X                      > $ @ * % &     & & $                               ",
"                                  . @ & &       & & & * * o @ $ $ $ @ O o & % & &       & & @ .                                 ",
"                                        X & & &             & & & & &             & & & X                                       ",
"                                            < o % & & &                 & & & & o o <                                           "
};
