/* XPM */
static const char *convert_xpm[] = {
/* columns rows colors chars-per-pixel */
"16 16 49 1",
"  c Black",
"@ c #4B4B4B",
", c #080808",
"= c #FFFFFF",
"3 c #717171",
"f c #C6C7C7",
"O c #010101",
"1 c #F8F8F8",
"+ c #3D3D3D",
"- c #6A6A6A",
"# c #090909",
"l c #09090A",
"j c #222323",
"a c #363636",
"p c #AEAEAE",
"o c #020202",
"r c #898989",
"x c #282828",
". c #030303",
"q c #A8A8A8",
"h c #0B0B0B",
"k c #292929",
"0 c #6F706F",
"* c #656565",
"X c #040404",
"2 c #CECECE",
"% c #4A4B4B",
"< c #404040",
"6 c #4F4F4F",
"5 c #7C7C7C",
"g c #A4A5A5",
"7 c #A9A9A9",
"4 c #E5E5E5",
"y c #2A2A2A",
"u c #A2A2A2",
"w c #050505",
"8 c #CFCFCF",
"s c #969797",
"> c #9B9B9B",
"& c #0D0D0D",
"; c #2B2B2B",
"$ c #3A3A3A",
"t c #767676",
"d c #242424",
": c #FDFDFD",
"9 c #888989",
"z c #161616",
"e c #525252",
"i c #898A8A",
/* pixels */
"       .X.      ",
"    oOO   oOo   ",
"   OO       oO  ",
"  Oo         .O ",
" oO           oo",
" O  O+@#  $%&  O",
" O   *=- ;:>,  o",
".    <12.345   .",
".    67890q9   w",
"O.   ert=yui   X",
" O  Otpasdfgh  o",
" O  OjklOzyx#  O",
" oo           oo",
"  O.         .O ",
"   Oo       oO  ",
"    oOo.X.oOo   "
};
