/* XPM */
static const char *bitcoin32_xpm[] = {
/* columns rows colors chars-per-pixel */
"32 32 111 2",
"   c Black",
"]  c #D9D9D9",
"(  c #1E1E1E",
"w  c #E8E8E8",
":  c #2D2D2D",
"'  c #5A5A5A",
"l  c #737474",
"@. c #969696",
"/  c #A5A5A5",
"L  c #030404",
"U  c #DCDDDC",
"P  c #C3C3C3",
";  c #080808",
"~  c #080809",
"<. c #171717",
"j  c #EBECEC",
"7  c #E1E1E1",
"}  c #F0F0F1",
"h  c #353535",
"i  c #FFFFFF",
"6  c #ADADAE",
"9  c #BCBCBC",
"O  c #010101",
"<  c #101010",
"%  c #1F1F1F",
"S  c #E9E9E9",
"Z  c #3D3D3D",
"s  c #747575",
"E  c #C4C4C4",
"N  c #090909",
"!  c #D3D3D3",
"d  c #181818",
".. c #F1F1F1",
";. c #727272",
"D  c #9F9F9F",
"X. c #AEAEAF",
"X  c #020202",
"t  c #020203",
"1  c #1B1C1C",
"`  c #111112",
"O. c #939494",
"I  c #A7A7A7",
"e  c #C0C1C1",
"@  c #0A0A0A",
"V  c #232424",
":. c #191919",
"5  c #282828",
">. c #555555",
"r  c #737373",
"#. c #737374",
"W  c #AAABAB",
"+  c #030303",
"H  c #1C1D1D",
"k  c #E6E7E7",
"o  c #121212",
">  c #212121",
"b  c #3A3B3B",
"x  c #EBEBEB",
"c  c #FAFAFA",
"Y  c #A3A4A4",
"|  c #151616",
"M  c #0B0B0B",
"z  c #1A1A1A",
"$. c #29292A",
" . c #606161",
"*. c #929292",
"*  c #040404",
"v  c #FBFBFB",
"[  c #404040",
"%. c #5E5E5E",
")  c #6D6D6D",
"Q  c #7C7C7C",
"-. c #9A9A9B",
"a  c #B3B4B4",
"m  c #A9A9A9",
"#  c #0C0C0C",
"o. c #252626",
"y  c #1B1B1B",
"q  c #E5E5E5",
"3  c #2A2A2A",
"0  c #434444",
"=. c #8E8F8F",
"B  c #ACADAD",
".  c #050505",
"2  c #1E1F1F",
"8  c #E8E9E9",
"T  c #DEDEDF",
"p  c #505050",
"-  c #0D0D0D",
"&. c #9E9F9F",
"n  c #A3A3A4",
"=  c #060606",
",  c #1F2020",
",. c #151515",
"A  c #242424",
"{  c #9C9C9C",
"g  c #BABABA",
"^  c #0E0E0E",
"G  c #F1F2F2",
"u  c #E7E7E7",
"R  c #545555",
"F  c #59595A",
"+. c #909191",
"J  c #868686",
"K  c #C2C2C2",
"$  c #070707",
"C  c #EAEBEB",
"f  c #E0E0E0",
"4  c #252525",
"_  c #6B6C6C",
"&  c #7F7F7F",
/* pixels */
"                          . X . . . X .                         ",
"                  o X O   O           O   O X o                 ",
"                X O O O O +   @ # @   + O O O O X               ",
"            $ O O O + %                   & + O O O $           ",
"          * O O X &                             = O O *         ",
"        * O O .                                   $ O O *       ",
"      $ O O $                                       - X O $     ",
"      O O .                                           ; O O     ",
"    X O *                                               $ O X   ",
"    O O &                                                 O O   ",
"  X O +           # : > , <             1 2 3 4 O         . O X ",
"  O O             5 6 7 8 9 ;         0 q w e r t           O O ",
"  O O               y u i i p         a i i s               X O ",
". O +               d f i i g O     h j k i l               * O ",
".       X           z 7 x c v b     n m g i s               M O ",
".   N   O           z u B e i n   V C Z 9 i s           O   A O ",
".   M               z S D F i G H J K L P i s               & O ",
"*   N               z S I M U i Y T R   E i s           O   A O ",
"X O =   X           z S W   Q i i ! ~ X E i s           X   # O ",
". O +               ^ u /   ( j i )     E i _               . O ",
"  O O             ` ' i ] [   { } | (  ...i X.h O           X O ",
"  O O 3           o.O.+.@.#.  $.%.  [ &.*.=.-.;.X           O O ",
"  X O +                                                   = O X ",
"    O O                                                   O O   ",
"    X O X                                               * O X   ",
"      O O =                                           - O O     ",
"      $ O O @                                       :.O O $     ",
"        * O O =                                   M O O *       ",
"          * O O =                               + O O *         ",
"            $ O O O *                       . O O O $           ",
"              >.X O O O X * N ,.A <.N * X O O O X               ",
"                  o X O O O O O O O O O O O X o                 "
};
